<svg xmlns="http://www.w3.org/2000/svg" viewBox="0 0 669.94 228.36"><title>Eszköz 1</title><g id="Réteg_2" data-name="Réteg 2"><g id="Layer_1" data-name="Layer 1"><polygon points="624.71 207.65 624.42 207.86 620.02 210.75 615.47 213.43 610.78 215.92 605.95 218.2 600.99 220.27 595.92 222.11 590.73 223.73 585.43 225.12 580.03 226.27 574.55 227.18 568.98 227.83 563.33 228.23 557.61 228.36 551.89 228.23 546.25 227.83 540.67 227.18 535.19 226.27 529.79 225.12 524.49 223.73 519.3 222.11 514.23 220.27 509.27 218.2 504.45 215.92 499.75 213.43 495.2 210.75 490.8 207.86 486.56 204.79 482.47 201.54 478.56 198.11 474.83 194.5 471.28 190.74 467.92 186.81 464.76 182.73 461.81 178.5 459.07 174.13 456.55 169.63 454.27 164.99 452.23 160.24 450.43 155.37 448.89 150.39 447.61 145.32 446.6 140.15 445.87 134.9 445.43 129.57 445.28 124.19 445.43 118.8 445.87 113.47 446.6 108.22 447.61 103.05 448.89 97.98 450.43 93 452.23 88.13 454.27 83.38 456.55 78.75 459.07 74.24 461.81 69.87 464.76 65.64 467.92 61.56 471.28 57.63 474.83 53.87 478.56 50.26 482.47 46.83 486.56 43.58 490.8 40.51 494.8 37.89 494.82 35.17 494.92 32.01 495.11 28.72 495.38 25.3 495.73 21.71 496.71 14.32 496.94 13.38 497.13 12.68 497.34 12.01 497.57 11.36 497.82 10.72 498.1 10.1 498.4 9.49 498.75 8.89 499.13 8.3 499.57 7.72 500.08 7.15 500.67 6.6 501.36 6.08 502.15 5.62 503.04 5.25 504.02 4.99 505.05 4.88 506.08 4.93 507.06 5.12 507.96 5.43 508.76 5.83 509.47 6.28 510.08 6.77 510.63 7.28 511.11 7.82 511.54 8.36 511.92 8.91 512.28 9.48 512.6 10.06 512.9 10.66 513.19 11.28 513.4 11.79 515.45 16.39 515.94 17.46 516.45 18.54 516.97 19.61 517.51 20.67 518.06 21.73 518.63 22.8 519.21 23.85 519.8 24.91 520.39 25.92 524.49 24.64 529.79 23.25 535.19 22.1 540.67 21.19 541.03 21.15 540.83 20.76 540.49 20.05 540.18 19.35 539.9 18.65 539.65 17.95 539.43 17.24 539.25 16.52 539.11 15.76 539.02 14.96 539.01 14.1 539.08 13.18 539.29 12.19 539.67 11.16 540.25 10.14 541.01 9.22 541.92 8.46 542.89 7.89 543.86 7.51 544.78 7.28 545.65 7.16 546.47 7.13 547.24 7.16 547.98 7.23 548.7 7.35 549.41 7.5 550.12 7.68 550.83 7.89 551.55 8.12 552.28 8.38 553.03 8.67 553.8 8.98 554.92 9.46 557.48 11.06 558.88 11.98 560.26 12.93 561.62 13.9 562.96 14.9 564.27 15.93 565.56 16.98 566.82 18.06 568.06 19.17 569.28 20.3 569.61 20.61 574.55 21.19 580.03 22.1 585.43 23.25 590.73 24.64 595.92 26.26 600.99 28.11 605.95 30.17 610.78 32.45 615.47 34.94 620.02 37.63 624.42 40.51 628.66 43.58 632.75 46.83 636.66 50.26 640.39 53.87 643.95 57.63 647.3 61.56 650.46 65.64 653.41 69.87 656.15 74.24 658.67 78.74 660.95 83.38 663 88.13 664.79 93 666.34 97.98 667.61 103.05 668.62 108.22 669.35 113.47 669.79 118.8 669.94 124.19 669.79 129.57 669.35 134.9 668.62 140.15 667.61 145.32 666.34 150.39 664.79 155.37 663 160.24 660.95 164.99 658.67 169.63 656.15 174.13 653.41 178.5 650.46 182.73 647.3 186.81 644.53 190.05 644.66 190.53 644.9 191.44 645.16 192.34 645.42 193.23 645.69 194.12 645.96 195 646.24 195.89 646.53 196.77 646.83 197.65 647.2 198.76 647.37 199.35 647.5 199.8 647.52 199.89 647.78 200.55 648.13 201.54 648.45 202.51 648.72 203.45 648.96 204.39 649.15 205.31 649.29 206.24 649.38 207.19 649.39 208.17 649.32 209.2 649.11 210.29 648.72 211.44 648.09 212.61 647.2 213.7 646.09 214.62 644.85 215.27 643.6 215.66 642.4 215.83 641.28 215.84 640.23 215.74 639.24 215.55 638.27 215.29 637.32 214.97 636.36 214.6 635.39 214.18 634.39 213.7 633.36 213.16 632.3 212.58 631.19 211.93 630.05 211.23 628.85 210.47 627.6 209.64 624.71 207.65 624.71 207.65" style="fill:#fff;fill-rule:evenodd"/><path d="M624.65,201.07l-3.28,2.37-4.19,2.75-4.34,2.56-4.47,2.37-4.6,2.17-4.73,2L594.2,217l-5,1.55-5.06,1.33L579,221l-5.24.86-5.32.63-5.4.38-5.46.13-5.46-.13-5.4-.38-5.32-.63-5.24-.86-5.15-1.1L526,218.56,521,217l-4.84-1.76-4.73-2-4.6-2.17-4.47-2.37L498,206.18l-4.19-2.75-4-2.92-3.89-3.1-3.72-3.26-3.55-3.42-3.37-3.58-3.19-3.73-3-3.87-2.8-4-2.59-4.14-2.38-4.27-2.16-4.38-1.94-4.5-1.7-4.6-1.46-4.7-1.21-4.79-1-4.88-.69-5-.42-5-.14-5.09.14-5.09.42-5,.69-5,1-4.88,1.21-4.79,1.46-4.7,1.7-4.6,1.94-4.5,2.16-4.38L463.7,77l2.59-4.14,2.8-4,3-3.87,3.19-3.73,3.37-3.58,3.55-3.42L485.92,51l3.89-3.1,4-2.92L498,42.19l2.19-1.29-.05-2.72,0-2.9.1-3,.18-3.16.26-3.3.34-3.45.92-7c1.46-6.3,4.38-6.62,6.46-1.4l2.09,4.7.52,1.13.54,1.13.55,1.13.57,1.12.58,1.12.59,1.11.61,1.11.62,1.11.64,1.11.66,1.1.67,1.1.69,1.1.29.45L521,31.35l5-1.55L531,28.48l5.15-1.1,5.24-.86,5.32-.63,3-.21-.15-.29-.48-.92-.49-.91-.5-.9-.51-.9L546,19c-3.48-6.67-1.15-8.1,6.46-4.76l2.15,1.35,1.31.86,1.29.88,1.27.91,1.24.93,1.22,1,1.2,1,1.18,1,1.16,1,1.14,1.05,1.11,1.08.53.53,1.25.09,5.32.63,5.24.86,5.15,1.1,5.06,1.33,5,1.55L599,33.12l4.73,2,4.6,2.17,4.47,2.37,4.34,2.56,4.19,2.75,4,2.92L629.3,51,633,54.22l3.55,3.42,3.37,3.58L643.13,65l3,3.87,2.8,4L651.52,77l2.38,4.27,2.16,4.38,1.93,4.5,1.7,4.6,1.46,4.7,1.21,4.79,1,4.88.69,5,.42,5,.14,5.09-.14,5.09-.42,5-.69,5-1,4.88-1.21,4.79-1.46,4.7-1.7,4.6-1.93,4.5-2.16,4.38-2.38,4.27-2.59,4.14-2.8,4-3,3.87-3.19,3.73-1.32,1.4.11.48.24,1,.24,1,.25,1,.26,1,.27.94.27.94.28.93.29.93.29.92.3.92.3.91.35,1,.13.43.1.36.09.35c3.93,9.89,1,12.27-11.79,3.66l-3.69-2.54-2.26-1.57Z" style="fill:#231f20;fill-rule:evenodd"/><path d="M624.06,160.2l-4-13.79c-19.46-1.54-36.58-5.58-50.9-12.59,14.64,15.13,33.36,23.21,54.91,26.38Zm-5.24-18-4.37-15c-25.49-.07-46.51-4.47-61-15.21a96.63,96.63,0,0,0,12.91,18.92c16.19,7.82,33.91,10.83,52.43,11.34Z" style="fill:#fff;fill-rule:evenodd"/><path d="M559.43,90a34.69,34.69,0,0,0,4.8,1,9.51,9.51,0,0,1,3-6.36q-1.81-1.94-3.64-3.55a15.17,15.17,0,0,0-4.13,8.45V90Z" style="fill:#fff;fill-rule:evenodd"/><path d="M632.73,201.56c-40.29-27.63-83.15-61-107.44-80.37-10.42-7.13-19.57-12.86-26.8-16.47-5.6-2.82-5.92-3-11.06-3.44-7.37-.63-13.82-.12-21.5.64l15.22,1a33.31,33.31,0,0,1,9.15,2.1c18.65,7.6,39.17,23.61,60.07,41.37l-21,3.69c-4.27.58-8,0-10.82-2.21l-55.64-37a83.9,83.9,0,0,1,22.48-44l14.92.52,3.56-5.13c5.58,8.37,15.69,14.36,21.78,15.52-15.75-9.32-25.07-20.12-20.22-58.52a115.36,115.36,0,0,0,25.14,36.05l32.37-3.93c-2.71-11.74-6.58-22.85-12.54-32.84,13.45,8.21,23.35,20.51,30.31,36.21L569,48.33c23.3,20.81,40.47,44.95,46.69,75-23.92.32-46.11-2.64-62.91-15.85.83-1.91,1.92-3.82,6-5.73-11.12,1.11-14,7.73-9.87,19.87.19-3.7.31-7.51,1.58-9.39,16.35,33.08,55.91,52.38,78.64,52.3,1.84.11,2.13,1.09,2.19,2.19a99.5,99.5,0,0,0,6,35c1,3.32.23,3.53-1.34,2.32l-3.22-2.48ZM579.91,98.8a81.17,81.17,0,0,0-18.06-21.6c-8.53-7.16-20.89-4.76-30.29-.68l8.4-.68c4,10.69,11.76,16.49,21.36,18.25a18.72,18.72,0,0,0,9.51-1.26,2.73,2.73,0,0,1,2.43.29l6.65,5.68Z" style="fill:#ed1c24;fill-rule:evenodd"/><path d="M482.71,178.56l9.54-15.09a4.32,4.32,0,0,1,4.15-1.73c24.72,4,36.69,9.19,45.65,16.6,2.7,2.23.46,4.8-3.34,3.46l-32.62-11.53q-5.86-1.56-.35,1.15c22.55,9.26,43.07,18.42,60.64,27.44,4.33,2.92,3,6.79-3,6.8-17.54-1.91-33.33-4.38-45.65-8l-.95,5.41a95.25,95.25,0,0,1-34.07-24.57Z" style="fill:#ed1c24;fill-rule:evenodd"/><path d="M616.55,109.16l24.8-4.36A18.58,18.58,0,0,0,650,99.91a85.54,85.54,0,0,1,3.26,21l-9.55-4.67-22.91,9.43-1.35-6.13-.71-2.87-.77-2.84-.83-2.8-.6-1.85Z" style="fill:#ed1c24;fill-rule:evenodd"/><path d="M555.12,75.52c-2.63-1.09-6.18-1.26-10.21-.8,1.87,8.24,7,13,14.51,15.23v-.42a13.29,13.29,0,0,1,2.44-9.86,33.31,33.31,0,0,0-4.37-3c-2.11,2.25-3.6,5.52-4.34,10-.91-3.54-.17-7.28,2-11.19Z" style="fill:#fff;fill-rule:evenodd"/><path d="M572.58,31.78c48.89,6.69,86.61,45.62,86.61,92.4,0,21.77-8.17,41.84-21.83,57.76v0l-.16-1.07-.14-1.08-.13-1.09-.12-1.11-.11-1.13-.1-1.14-.08-1.16-.06-1.06a81.5,81.5,0,0,0,16.48-48.88c0-41.66-32.26-76.65-75.1-85.17l-.25-.39-.88-1.32-.9-1.3-.93-1.28-.95-1.26-1-1.24-.36-.45Zm47.42,166a106.75,106.75,0,0,1-62.39,19.79c-55.95,0-101.58-42-101.58-93.42,0-32.07,17.73-60.45,44.63-77.29l.2,1.71.37,2.34.44,2.24.11.45c-23.89,15.86-39.48,41.6-39.48,70.56,0,48,42.81,87.15,95.3,87.15a100.7,100.7,0,0,0,57-17.35l.9.64,3.82,2.7.71.5ZM521.19,37a108.33,108.33,0,0,1,31-6.1l.06.14.41,1,.4,1,.39,1,.38,1,.37,1,.37,1,.07.18a102.42,102.42,0,0,0-29.43,5.16l-.45-.55-.84-1.07-.82-1.07-.81-1.07-.79-1.08-.29-.41Z" style="fill:#ed1c24;fill-rule:evenodd"/><path d="M0,0H54.92V59.58h9.49V0h54.92V183.75H64.41V114.19H54.92v69.57H0V0ZM129.15,0h91V50.42H190.52V64.09h28V114.2h-28v19.15h33.17v50.42H129.15V0ZM293.9,133.36h26.41v50.42H232.54V0H293.9V133.36ZM331.74,0H393.1V133.36h26.41v50.42H331.74V0Z" style="fill:#231f20;fill-rule:evenodd"/><path d="M4.32,4.32H50.6V63.9H68.73V4.32H115V179.43H68.73V109.87H50.6v69.57H4.32V4.32Zm129.15,0h82.36V46.1H186.2V68.41h28v41.47h-28v27.79h33.17v41.78h-85.9V4.32ZM289.58,137.68H316v41.78H236.86V4.32h52.73V137.68ZM336.06,4.32h52.73V137.68h26.41v41.78H336.06V4.32Z" style="fill:#fff;fill-rule:evenodd"/><path d="M8.62,8.62H46.3V68.2H73V8.62h37.68V175.13H73V105.56H46.3v69.57H8.62V8.62Zm129.15,0h73.75V41.79H181.9V72.71h28v32.87h-28V142h33.17v33.17h-77.3V8.62ZM285.28,142h26.41v33.17H241.16V8.62h44.12V142ZM340.36,8.62h44.12V142h26.41v33.17H340.36V8.62Z" style="fill:#ed1c24;fill-rule:evenodd"/><polygon points="4.29 199.26 25.14 199.26 25.14 205.72 12.38 205.72 12.38 209.8 22.87 209.8 22.87 215.78 12.38 215.78 12.38 220.47 25.3 220.47 25.3 226.94 4.29 226.94 4.29 199.26 4.29 199.26" style="fill:#fff;fill-rule:evenodd"/><polygon points="42.69 199.26 50.7 199.26 59.58 213.86 59.23 199.26 66.25 199.26 66.25 226.94 59.39 226.94 49.3 210.27 49.62 226.94 42.69 226.94 42.69 199.26 42.69 199.26" style="fill:#fff;fill-rule:evenodd"/><polygon points="82.58 199.26 103.44 199.26 103.44 205.72 90.68 205.72 90.68 209.8 101.16 209.8 101.16 215.78 90.68 215.78 90.68 220.47 103.59 220.47 103.59 226.94 82.58 226.94 82.58 199.26 82.58 199.26" style="fill:#fff;fill-rule:evenodd"/><path d="M118.57,199.26h13.52c7.21,0,10.84,2.68,10.84,8.1,0,3.75-1.72,6.38-4.82,7.49l5,12.08H134l-4.11-10.48H127v10.48h-8.41V199.26Zm8.41,5.9v5.42h4c2.07,0,3.34-1.2,3.34-2.71,0-1.84-1.15-2.71-3.47-2.71Z" style="fill:#fff;fill-rule:evenodd"/><path d="M175.76,224.07c-1.32,1.95-4.11,3.15-7.66,3.15-7.25,0-12.08-5.35-12.08-14.16s5.1-14.35,13.4-14.35c6.34,0,10.44,3.55,11.44,9.84l-8,.8c-.37-2.74-1.8-4.31-3.71-4.31-3,0-4.27,2.59-4.27,8.1,0,5.22,1.36,7.73,4.47,7.73a3.57,3.57,0,0,0,3.74-3.15l0-.33h-4.58v-5.82H181v15.35h-4.07l-1.16-2.87Z" style="fill:#fff;fill-rule:evenodd"/><polygon points="202.39 215.06 193.3 199.26 202.59 199.26 207.37 208.35 212 199.26 219.37 199.26 210.88 214.78 210.88 226.94 202.39 226.94 202.39 215.06 202.39 215.06" style="fill:#fff;fill-rule:evenodd"/><path d="M249,199.27h10.64a15,15,0,0,1,8,1.83c3.75,2.35,6,6.7,6,12a14.14,14.14,0,0,1-5.14,11.28c-2.43,1.79-5.38,2.55-9.17,2.55H249V199.27Zm10.4,21.21c3.07,0,5.23-2.83,5.23-7.49s-2-7.34-5-7.34h-2.15v14.83Z" style="fill:#fff;fill-rule:evenodd"/><path d="M288.3,199.26H301.8c7.22,0,10.84,2.68,10.84,8.1,0,3.75-1.72,6.38-4.82,7.49l5,12.08h-9.09l-4.11-10.48h-2.91v10.48H288.3V199.26Zm8.41,5.9v5.42h4c2.07,0,3.34-1.2,3.34-2.71,0-1.84-1.16-2.71-3.47-2.71Z" style="fill:#fff;fill-rule:evenodd"/><polygon points="329.15 199.27 337.8 199.27 337.8 226.94 329.15 226.94 329.15 199.27 329.15 199.27" style="fill:#fff;fill-rule:evenodd"/><polygon points="352.88 199.26 360.89 199.26 369.78 213.86 369.43 199.26 376.45 199.26 376.45 226.94 369.59 226.94 359.5 210.27 359.82 226.94 352.88 226.94 352.88 199.26 352.88 199.26" style="fill:#fff;fill-rule:evenodd"/><polygon points="391.58 199.26 399.32 199.26 399.32 210.79 406.73 199.26 414.51 199.26 407.53 209.48 416.23 226.94 407.06 226.94 402.04 216.25 399.32 220.11 399.32 226.94 391.58 226.94 391.58 199.26 391.58 199.26" style="fill:#fff;fill-rule:evenodd"/><path d="M413.06,6.11a7,7,0,1,1-7,7,7,7,0,0,1,7-7Zm0-1.79a8.77,8.77,0,1,1-8.77,8.77,8.79,8.79,0,0,1,8.77-8.77Z" style="fill:#231f20;fill-rule:evenodd"/><path d="M408.44,7.89h5.08c2.71,0,4.08,1,4.08,3a2.74,2.74,0,0,1-1.81,2.82l1.87,4.55h-3.42l-1.55-3.94h-1.09V18.3h-3.16V7.89Zm3.16,2.22v2h1.52c.78,0,1.26-.45,1.26-1s-.43-1-1.3-1Z" style="fill:#231f20;fill-rule:evenodd"/></g></g></svg>